<svg width="43" height="51" viewBox="0 0 43 51" fill="none" xmlns="http://www.w3.org/2000/svg">
<path id="Vector" d="M42.0988 39.7445C41.3268 41.5263 40.4129 43.1664 39.3542 44.6744C37.911 46.73 36.7293 48.1529 35.8187 48.9431C34.407 50.2401 32.8944 50.9043 31.2748 50.9421C30.112 50.9421 28.7097 50.6115 27.0775 49.941C25.4398 49.2736 23.9349 48.9431 22.5588 48.9431C21.1156 48.9431 19.5677 49.2736 17.9122 49.941C16.254 50.6116 14.9183 50.961 13.897 50.9956C12.3438 51.0617 10.7957 50.3786 9.25042 48.9431C8.26408 48.0837 7.03046 46.6104 5.55255 44.5232C3.96692 42.2944 2.66333 39.7098 1.64204 36.7632C0.548293 33.5806 0 30.4987 0 27.515C0 24.0971 0.739256 21.1493 2.21996 18.679C3.38367 16.6948 4.9318 15.1296 6.86942 13.9806C8.807 12.8315 10.9006 12.246 13.1552 12.2085C14.3889 12.2085 16.0067 12.5897 18.0171 13.339C20.0218 14.0908 21.309 14.472 21.8734 14.472C22.2953 14.472 23.7253 14.0262 26.1495 13.1375C28.4419 12.3134 30.3767 11.972 31.9617 12.1065C36.2567 12.4528 39.4834 14.1442 41.6293 17.1916C37.7881 19.5167 35.8879 22.7734 35.9258 26.9511C35.9604 30.2053 37.1421 32.9132 39.4645 35.0634C40.5169 36.0613 41.6923 36.8326 43 37.3803C42.7164 38.202 42.417 38.989 42.0988 39.7445ZM32.2485 1.0203C32.2485 3.57087 31.3157 5.95234 29.4565 8.15662C27.213 10.7771 24.4993 12.2913 21.5564 12.0523C21.517 11.7317 21.4972 11.4089 21.4972 11.0859C21.4972 8.63733 22.5641 6.01687 24.4589 3.87432C25.4049 2.7895 26.608 1.8875 28.0669 1.16795C29.5227 0.459138 30.8998 0.0671438 32.1949 0C32.2327 0.34096 32.2485 0.682006 32.2485 1.0203Z" fill="black"/>
</svg>
