<svg width="111" height="22" viewBox="0 0 111 22" fill="none" xmlns="http://www.w3.org/2000/svg">
<g id="Group 34">
<path id="Vector" d="M106.286 2.78612C106.286 1.5272 107.297 0.49531 108.536 0.49531C109.134 0.49531 109.691 0.742964 110.125 1.15572C110.558 1.58912 110.785 2.16698 110.785 2.76548C110.785 3.36398 110.558 3.94184 110.125 4.37524C109.691 4.80863 109.134 5.05629 108.536 5.05629C107.297 5.05629 106.286 4.04503 106.286 2.78612ZM106.1 2.78612C106.1 4.14822 107.194 5.26266 108.556 5.26266C109.217 5.26266 109.815 5.01501 110.269 4.54034C110.723 4.06567 110.991 3.44653 110.991 2.78612C110.991 2.1257 110.744 1.50657 110.269 1.03189C109.794 0.557223 109.196 0.309568 108.556 0.309568C107.194 0.309568 106.1 1.42402 106.1 2.78612ZM107.627 4.25141H107.978V3.09569H108.763C108.886 3.09569 108.99 3.09569 109.072 3.13696C109.175 3.19887 109.237 3.3227 109.258 3.4878L109.299 3.94184V4.14822C109.32 4.18949 109.32 4.21013 109.34 4.23077H109.774V4.16886C109.712 4.14822 109.691 4.0863 109.671 4.00375C109.65 3.96248 109.65 3.87993 109.65 3.77674L109.629 3.42589C109.629 3.26079 109.588 3.1576 109.547 3.09569C109.485 3.03377 109.402 2.97186 109.299 2.93058C109.423 2.86867 109.505 2.78612 109.567 2.68293C109.629 2.57974 109.65 2.45591 109.65 2.29081C109.65 1.98124 109.526 1.77486 109.299 1.65103C109.175 1.58912 109.01 1.56848 108.824 1.56848H107.648L107.627 4.25141ZM107.958 2.78612V1.85741H108.783C108.907 1.85741 109.01 1.87805 109.072 1.91932C109.196 1.98124 109.258 2.1257 109.258 2.31144C109.258 2.49719 109.217 2.62101 109.113 2.68293C109.031 2.74484 108.907 2.78612 108.742 2.78612H107.958ZM10.1753 6.19137L0.145264 21.9587H6.99705L16.6556 6.89306L10.1753 6.19137ZM51.4717 5.84053V0H31.9689C29.3066 0.165103 28.1509 1.44465 27.2841 2.35272C26.3554 3.3227 25.8394 5.36585 25.8394 5.36585V0.0412758H15.4586C14.6743 0.0412758 13.9314 0.371482 13.3742 1.15572C12.7963 1.91932 10.4229 5.84053 10.4229 5.84053H51.4717ZM104.511 5.84053V0H83.6462C81.0046 0.165103 79.8282 1.44465 78.9614 2.35272C78.0327 3.3227 77.5167 5.36585 77.5167 5.36585V5.84053H104.511ZM58.3235 0.0206379H52.483V5.84053H58.3235V0.0206379ZM77.4548 0.0206379H71.6349V5.84053H77.4548V0.0206379ZM77.4548 7.94559L71.7175 7.59475V14.3433C71.7175 14.3433 71.6969 16.2833 69.8188 16.2833H59.9952C59.9952 16.2833 58.3235 16.1388 58.3235 14.364V6.68668L52.5449 6.27392V16.6135C53.4736 21.5666 57.952 21.9587 57.952 21.9587C57.952 21.9587 58.4061 21.9794 58.4886 22H71.8001C71.8001 22 77.4961 21.546 77.4961 16.0563L77.4548 7.94559ZM19.8957 21.9587H47.179C51.9258 21.0094 52.4211 16.6754 52.4211 16.6754C52.6481 15.3959 52.5243 14.3433 52.5243 14.3433C52.3798 13.4765 50.7288 9.6379 47.179 9.30769C45.0533 9.10131 26.1284 7.59475 26.1284 7.59475C26.4999 9.49343 27.346 10.4634 27.9239 11C29.2447 12.2589 31.3291 12.6304 31.3291 12.6304L45.9201 13.848C46.3742 13.8687 47.2203 13.9925 47.1997 15.1069C47.1997 15.2514 47.0758 16.2214 46.0027 16.2214H25.5918V7.55347L19.9164 7.14071C19.8957 7.14071 19.8957 21.9587 19.8957 21.9587ZM77.4961 22H98.3817C103.624 21.6904 104.367 16.7167 104.367 16.7167C104.552 15.4165 104.408 14.3433 104.408 14.3433C104.263 13.167 102.592 9.61726 99.0214 9.26642C96.9164 9.06004 77.8676 7.94559 77.8676 7.94559C78.4248 9.90619 79.1884 10.5047 79.7663 11.0413C81.0871 12.3208 83.0477 12.6098 83.0477 12.6098C83.543 12.651 97.7832 13.848 97.7832 13.848C98.2372 13.8687 99.1659 13.9099 99.1659 15.0244C99.1659 15.3546 99.0008 15.7054 98.7944 15.8912C98.7944 15.8912 98.2991 16.1595 97.8244 16.1595H77.558L77.4961 22Z" fill="#00539B"/>
</g>
</svg>
