<svg width="75" height="31" viewBox="0 0 75 31" fill="none" xmlns="http://www.w3.org/2000/svg">
<path d="M31.9636 9.60567H29.9415L29.32 7.501C29.2258 7.15208 29.098 6.81313 28.9385 6.48892C28.8231 6.26093 28.646 6.07011 28.4273 5.93834C28.1595 5.80137 27.8608 5.73629 27.5604 5.74945H26.1973V9.60459H24.2835V0.113767H28.1176C29.2714 0.113767 30.1237 0.340937 30.6745 0.795283C31.2253 1.24963 31.5007 1.96227 31.5007 2.93322C31.5258 3.47784 31.35 4.01269 31.0067 4.43578C30.6512 4.83063 30.1697 5.08939 29.6447 5.16774C30.0766 5.3001 30.4464 5.58398 30.6862 5.96732C30.9667 6.45423 31.1849 6.97456 31.3356 7.51603L31.9636 9.60567ZM29.1946 3.92276C29.4511 3.65463 29.5944 3.29761 29.5944 2.92624C29.5944 2.55487 29.4511 2.19785 29.1946 1.92972C28.9039 1.70033 28.5409 1.5827 28.1712 1.59808H26.1898V4.25762H28.1669C28.5354 4.27555 28.8982 4.1614 29.1903 3.93564L29.1946 3.92276Z" fill="#92C641"/>
<path d="M33.8678 8.84687C33.3438 8.34137 33.0834 7.60726 33.0834 6.65099V3.07059C33.0834 2.1111 33.3449 1.37842 33.8678 0.872558C34.3908 0.366695 35.2534 0.113767 36.4557 0.113767H39.633V1.60452H36.4557C36.0553 1.57248 35.6583 1.69886 35.3498 1.95655C35.1127 2.19267 34.9934 2.56401 34.9919 3.07059V4.1138H39.0361V5.60456H34.9919V6.65099C34.9605 6.85059 34.9767 7.05481 35.0392 7.24695C35.1017 7.43909 35.2087 7.61369 35.3514 7.75648C35.4942 7.89926 35.6687 8.00617 35.8606 8.06847C36.0525 8.13076 36.2565 8.14668 36.4557 8.11491H39.6512V9.60567H36.4557C35.2555 9.60567 34.3929 9.35273 33.8678 8.84687Z" fill="#92C641"/>
<path d="M40.935 3.07059C40.935 2.1111 41.1968 1.37842 41.7205 0.872558C42.2441 0.366695 43.1068 0.113767 44.3084 0.113767H47.4857V1.60452H44.3084C43.9085 1.57142 43.5118 1.69795 43.2046 1.95655C42.9646 2.18408 42.8467 2.56401 42.8467 3.07059V4.38426H46.8813V5.87824H42.8467V9.60567H40.935V3.07059Z" fill="#92C641"/>
<path d="M49.7028 8.98961C49.0713 8.46014 48.7559 7.72532 48.7566 6.78514V0.113767H50.6651V6.78514C50.6651 7.78685 51.2788 8.2877 52.5061 8.2877C53.7334 8.2877 54.3475 7.78685 54.3482 6.78514V0.113767H56.2567V6.78514C56.2567 7.72532 55.9406 8.46014 55.3083 8.98961C54.6761 9.51909 53.7442 9.7806 52.5125 9.77416C51.2759 9.77416 50.3393 9.51265 49.7028 8.98961Z" fill="#92C641"/>
<path d="M65.9054 9.60567H63.8875L63.266 7.501C63.171 7.15266 63.044 6.81386 62.8867 6.48892C62.7696 6.26102 62.591 6.07063 62.3712 5.93941C62.1034 5.80245 61.8047 5.73736 61.5043 5.75052H60.1466V9.60567H58.2338V0.113767H62.0669C63.2235 0.113767 64.0761 0.340937 64.6248 0.795283C65.1735 1.24963 65.4489 1.96227 65.451 2.93322C65.4775 3.4782 65.3011 4.01364 64.9559 4.43578C64.601 4.83077 64.1198 5.08959 63.595 5.16774C64.0269 5.3001 64.3967 5.58398 64.6366 5.96732C64.9181 6.45461 65.1377 6.97524 65.2903 7.5171L65.9054 9.60567ZM63.1364 3.92276C63.3974 3.65893 63.5448 3.30309 63.5468 2.93165C63.5488 2.56021 63.4053 2.20279 63.1471 1.93616C62.8562 1.7072 62.4933 1.58961 62.1237 1.60452H60.1466V4.26406H62.1237C62.4915 4.27757 62.8521 4.15922 63.1406 3.93027L63.1364 3.92276Z" fill="#92C641"/>
<path d="M67.4624 0.113767H71.633C72.6253 0.113767 73.3858 0.328418 73.9145 0.757722C74.4431 1.18703 74.7071 1.81595 74.7064 2.64451C74.7087 3.08297 74.5659 3.50983 74.3003 3.85836C74.0051 4.23589 73.5886 4.49946 73.1215 4.60428C73.6532 4.69361 74.1358 4.96987 74.4824 5.38346C74.8409 5.84102 75.023 6.41242 74.9957 6.99335C75.0117 7.35473 74.9435 7.71487 74.7966 8.04532C74.6497 8.37576 74.428 8.66745 74.1492 8.89732C73.5869 9.36382 72.8175 9.59672 71.8409 9.596H67.4624V0.113767ZM71.5923 3.93671C71.7521 3.94371 71.9117 3.91884 72.0618 3.86357C72.2119 3.8083 72.3495 3.72372 72.4667 3.61474C72.5781 3.50449 72.6651 3.37205 72.7222 3.226C72.7792 3.07995 72.805 2.92353 72.7979 2.76686C72.8037 2.61035 72.7773 2.45431 72.7203 2.30844C72.6634 2.16258 72.577 2.03001 72.4667 1.91899C72.2291 1.70029 71.9148 1.58455 71.5923 1.59701H69.3709V3.9292L71.5923 3.93671ZM71.4294 8.11491C71.9888 8.11491 72.4039 8.004 72.6746 7.7822C72.9347 7.51046 73.0798 7.14863 73.0798 6.77226C73.0798 6.39589 72.9347 6.03406 72.6746 5.76232C72.4046 5.53479 71.9942 5.42962 71.4294 5.42962H69.3688V8.11276L71.4294 8.11491Z" fill="#92C641"/>
<path d="M48.7523 24.9855C50.12 24.9855 51.2288 23.875 51.2288 22.5052C51.2288 21.1353 50.12 20.0249 48.7523 20.0249C47.3846 20.0249 46.2758 21.1353 46.2758 22.5052C46.2758 23.875 47.3846 24.9855 48.7523 24.9855Z" fill="#92C641"/>
<path d="M48.7523 26.0147C48.0592 26.0153 47.3815 25.8101 46.8049 25.425C46.2282 25.0398 45.7786 24.492 45.5128 23.8509C45.2471 23.2098 45.1771 22.5042 45.3118 21.8232C45.4464 21.1423 45.7797 20.5167 46.2694 20.0254C46.7591 19.5342 47.3833 19.1995 48.063 19.0635C48.7427 18.9276 49.4473 18.9966 50.0878 19.2618C50.7283 19.527 51.276 19.9765 51.6614 20.5535C52.0468 21.1304 52.2528 21.8088 52.2532 22.503C52.2535 23.4335 51.8849 24.3261 51.2285 24.9846C50.572 25.6431 49.6814 26.0136 48.7523 26.0147ZM48.7523 21.0552C48.4652 21.0545 48.1844 21.1392 47.9454 21.2985C47.7064 21.4577 47.52 21.6844 47.4096 21.9498C47.2993 22.2152 47.27 22.5074 47.3256 22.7895C47.3811 23.0716 47.5189 23.3308 47.7216 23.5344C47.9243 23.738 48.1827 23.8768 48.4642 23.9333C48.7457 23.9897 49.0375 23.9613 49.3029 23.8516C49.5682 23.7418 49.7951 23.5557 49.9548 23.3168C50.1145 23.0779 50.1998 22.797 50.2 22.5095V22.503C50.1989 22.119 50.0459 21.7511 49.7746 21.4797C49.5033 21.2084 49.1357 21.0557 48.7523 21.0552Z" fill="#92C641"/>
<path d="M48.7523 30.4741C47.1786 30.4745 45.6402 30.0076 44.3315 29.1323C43.0228 28.257 42.0026 27.0127 41.4 25.5567C40.7974 24.1008 40.6394 22.4985 40.946 20.9526C41.2526 19.4067 42.01 17.9866 43.1225 16.8718C44.2349 15.757 45.6525 14.9977 47.1958 14.6898C48.7391 14.3819 50.339 14.5392 51.793 15.142C53.2471 15.7448 54.49 16.7658 55.3646 18.0761C56.2393 19.3863 56.7063 20.9269 56.7068 22.503C56.707 23.5495 56.5015 24.5858 56.1019 25.5528C55.7023 26.5197 55.1165 27.3983 54.3778 28.1385C53.6392 28.8787 52.7622 29.4659 51.797 29.8667C50.8318 30.2674 49.7972 30.4738 48.7523 30.4741ZM48.7523 16.5947C47.5851 16.5945 46.444 16.941 45.4734 17.5903C44.5028 18.2396 43.7463 19.1626 43.2995 20.2426C42.8526 21.3226 42.7356 22.511 42.9632 23.6576C43.1908 24.8041 43.7527 25.8574 44.578 26.6841C45.4033 27.5108 46.4548 28.0738 47.5996 28.3019C48.7443 28.5301 49.9309 28.4131 51.0093 27.9658C52.0877 27.5185 53.0094 26.7609 53.6579 25.7889C54.3064 24.8169 54.6525 23.6742 54.6525 22.5052C54.6525 20.9378 54.0309 19.4346 52.9244 18.3262C51.818 17.2178 50.3172 16.595 48.7523 16.5947Z" fill="#92C641"/>
<path d="M38.8743 14.3409V30.9903H37.6741V15.4721C37.5754 15.4979 37.4824 15.5419 37.3998 15.602C37.2293 15.7512 37.0911 15.9338 36.9937 16.1386L31.5735 26.415L26.1566 16.1343C26.0553 15.9324 25.9146 15.7529 25.743 15.6063C25.6614 15.5449 25.568 15.501 25.4686 15.4775V31H24.2835V14.3409H25.0872C25.5108 14.3218 25.9307 14.4284 26.294 14.6474C26.6574 14.8664 26.9481 15.188 27.1296 15.5719L31.5735 23.9691L36.0217 15.5719C36.2036 15.1884 36.4944 14.8673 36.8577 14.6487C37.2211 14.4301 37.6408 14.3237 38.0642 14.343L38.8743 14.3409Z" fill="#92C641"/>
<path d="M69.6752 23.5398C69.1963 22.9233 68.5614 22.4463 67.8364 22.1585C68.4183 21.8932 68.9218 21.4817 69.298 20.964C69.8165 20.2583 70.0915 19.4027 70.0814 18.5266C70.0897 17.7703 69.895 17.0256 69.5177 16.3704C69.1597 15.7392 68.6346 15.2193 68.0003 14.8679C67.3404 14.5064 66.5985 14.3216 65.8464 14.3312H58.6667V30.9818H65.4746C67.037 30.9818 68.2843 30.561 69.1855 29.7314C70.0867 28.9018 70.5475 27.747 70.5475 26.3217C70.5766 25.3226 70.2694 24.3428 69.6752 23.5398ZM65.66 15.4431C66.6426 15.4431 67.4345 15.7232 68.0175 16.2738C68.6004 16.8244 68.8823 17.5617 68.8823 18.5277C68.8978 18.943 68.8249 19.3568 68.6684 19.7417C68.5119 20.1266 68.2754 20.4738 67.9746 20.76C67.6666 21.0539 67.3029 21.2829 66.9049 21.4333C66.5069 21.5837 66.0829 21.6526 65.6578 21.6358H59.8541V15.4431H65.66ZM68.3132 28.9662C67.6092 29.5822 66.574 29.8935 65.2378 29.8935H59.8541V22.7305H65.2463C66.5387 22.7305 67.562 23.0525 68.2854 23.6965C69.0087 24.3404 69.3634 25.199 69.3634 26.326C69.3634 27.4529 69.0141 28.3566 68.3132 28.9651V28.9662Z" fill="#92C641"/>
<path d="M74.9904 14.3409H73.8009V30.9914H74.9904V14.3409Z" fill="#92C641"/>
<path d="M16.5765 8.95849L17.5345 9.97165L18.5172 8.98532L16.5765 8.95849Z" fill="#92C641"/>
<path d="M17.4435 10.3033V29.2109C17.4435 30.0244 16.7126 30.6888 15.8136 30.6888H2.66399C1.75635 30.6888 1.03516 30.0244 1.03516 29.2109V21.2752C0.970866 21.2752 0.90657 21.2752 0.842274 21.2752V29.2173C0.842274 30.1264 1.65883 30.8701 2.65756 30.8701H15.8136C16.8176 30.8701 17.6299 30.1285 17.6299 29.2173V10.3033H17.4435Z" fill="#92C641"/>
<path d="M15.8136 30.9764H2.66399C1.59239 30.9764 0.728687 30.1833 0.728687 29.2109V21.155H0.848706C0.909029 21.1582 0.969482 21.1582 1.02981 21.155H1.14768V29.2044C1.14768 29.9557 1.82922 30.5675 2.66399 30.5675H15.8136C16.6494 30.5675 17.3299 29.9568 17.3299 29.2044V10.1895H17.7499V29.2109C17.7499 30.1833 16.8809 30.9764 15.8136 30.9764Z" fill="#92C641"/>
<path d="M15.8136 0.113767H2.66399C1.65883 0.113767 0.848705 0.854313 0.848705 1.76551V20.4048H1.04159V1.76551C1.04159 0.949833 1.77242 0.28656 2.67149 0.28656H15.8136C16.7223 0.28656 17.4435 0.949833 17.4435 1.76551V9.43501H17.6363V1.76551C17.6363 0.854313 16.8176 0.113767 15.8136 0.113767Z" fill="#92C641"/>
<path d="M0.944079 20.5207H0.729759V1.76551C0.729759 0.793138 1.58704 1.90735e-06 2.66506 1.90735e-06H15.8136C16.8852 1.90735e-06 17.7499 0.793138 17.7499 1.76551V9.54663H17.3481L17.3299 9.43287V1.76551C17.3299 1.01423 16.6494 0.402474 15.8136 0.402474H2.66399C1.82707 0.402474 1.14768 1.0153 1.14768 1.76551V20.5164H0.944079V20.5207Z" fill="#92C641"/>
<path d="M9.23931 28.4403C9.39082 28.4403 9.51364 28.3173 9.51364 28.1655C9.51364 28.0138 9.39082 27.8908 9.23931 27.8908C9.0878 27.8908 8.96498 28.0138 8.96498 28.1655C8.96498 28.3173 9.0878 28.4403 9.23931 28.4403Z" fill="#92C641"/>
<path d="M9.23931 28.5519C9.16233 28.5525 9.0869 28.5303 9.02255 28.488C8.95821 28.4456 8.90785 28.3851 8.87786 28.3141C8.84786 28.2431 8.83958 28.1648 8.85405 28.0891C8.86852 28.0134 8.9051 27.9436 8.95915 27.8887C9.01321 27.8339 9.08231 27.7963 9.15771 27.7807C9.23311 27.7652 9.31142 27.7724 9.38272 27.8015C9.45402 27.8305 9.51511 27.8801 9.55826 27.944C9.6014 28.0078 9.62466 28.0831 9.62508 28.1602V28.1655C9.62452 28.2678 9.58369 28.3658 9.51147 28.4381C9.43924 28.5104 9.34145 28.5513 9.23931 28.5519ZM9.23931 28.0035C9.19668 27.9983 9.15376 28.0104 9.12 28.037C9.08624 28.0635 9.0644 28.1024 9.05928 28.1451C9.05417 28.1878 9.06619 28.2308 9.09272 28.2646C9.11925 28.2984 9.1581 28.3203 9.20073 28.3254H9.23931C9.27874 28.3209 9.31512 28.3019 9.34153 28.2723C9.36794 28.2426 9.38253 28.2042 9.38253 28.1645C9.38253 28.1247 9.36794 28.0863 9.34153 28.0566C9.31512 28.027 9.27874 28.008 9.23931 28.0035Z" fill="#92C641"/>
<path d="M9.23931 29.0445C9.06505 29.0452 8.89451 28.994 8.74928 28.8976C8.60405 28.8011 8.49065 28.6637 8.42343 28.5026C8.3562 28.3416 8.33817 28.1642 8.37163 27.993C8.40508 27.8217 8.4885 27.6642 8.61135 27.5404C8.73419 27.4166 8.89094 27.3321 9.06175 27.2975C9.23257 27.263 9.40977 27.28 9.57095 27.3463C9.73213 27.4127 9.87004 27.5254 9.96723 27.6703C10.0644 27.8151 10.1165 27.9856 10.1169 28.1602V28.1655C10.1169 28.3986 10.0245 28.6222 9.85989 28.7871C9.6953 28.9519 9.47207 29.0445 9.23931 29.0445ZM9.23931 27.5108C9.11003 27.5104 8.98352 27.5484 8.87579 27.62C8.76806 27.6916 8.68394 27.7935 8.63407 27.913C8.58421 28.0325 8.57083 28.1641 8.59564 28.2911C8.62045 28.4182 8.68232 28.5351 8.77344 28.6269C8.86456 28.7188 8.98082 28.7815 9.10754 28.8072C9.23426 28.8329 9.36573 28.8204 9.48534 28.7712C9.60494 28.722 9.7073 28.6385 9.77948 28.531C9.85166 28.4236 9.89041 28.2972 9.89084 28.1677C9.89313 27.9945 9.82671 27.8275 9.70615 27.7033C9.5856 27.5792 9.42078 27.508 9.24788 27.5055H9.23931V27.5108Z" fill="#92C641"/>
<path d="M11.3321 2.20018H7.14434C7.08408 2.20018 7.0263 2.17621 6.9837 2.13354C6.94109 2.09087 6.91716 2.03299 6.91716 1.97265C6.91716 1.9123 6.94109 1.85443 6.9837 1.81176C7.0263 1.76909 7.08408 1.74512 7.14434 1.74512H11.3321C11.3924 1.74512 11.4502 1.76909 11.4928 1.81176C11.5354 1.85443 11.5593 1.9123 11.5593 1.97265C11.5593 2.03299 11.5354 2.09087 11.4928 2.13354C11.4502 2.17621 11.3924 2.20018 11.3321 2.20018Z" fill="#92C641"/>
<path d="M1.87208 21.8279L0.948363 20.8513L0 21.8011L1.87208 21.8279Z" fill="#92C641"/>
<path d="M12.7959 19.0321C11.6375 17.6369 9.66152 15.1684 9.31646 14.6993C10.8167 13.7474 11.854 12.54 11.854 10.9859C11.854 9.4318 10.4824 8.41005 8.07234 8.11491C7.36937 8.03012 6.63104 7.98719 5.96665 7.96036L6.00952 9.15597C9.46113 9.19246 10.0655 10.417 10.0655 11.2424C10.0655 13.0337 8.2438 14.1498 7.32544 14.6521C7.75408 15.2478 10.1116 18.3613 11.2453 19.8478C11.4425 19.7598 11.584 19.6932 11.6408 19.6664L12.7959 19.0321Z" fill="#92C641"/>
<path d="M12.3255 18.4686C12.3255 18.4686 10.4781 19.5483 10.2102 19.676C8.56527 20.4853 7.19899 21.0402 6.25705 21.4469L6.82714 23.015C7.59655 22.6082 6.48423 23.1974 8.61028 22.1628C10.7363 21.1282 12.8227 20.1172 13.4239 19.7802C13.3178 19.6567 12.977 19.2618 12.3255 18.4686Z" fill="#92C641"/>
<path d="M7.7005 12.1428C7.96149 12.1428 8.17307 11.9309 8.17307 11.6695C8.17307 11.4081 7.96149 11.1962 7.7005 11.1962C7.4395 11.1962 7.22792 11.4081 7.22792 11.6695C7.22792 11.9309 7.4395 12.1428 7.7005 12.1428Z" fill="#92C641"/>
<path d="M7.03503 11.6695C7.03461 11.5373 7.07335 11.4079 7.14636 11.2977C7.21936 11.1875 7.32335 11.1015 7.44518 11.0505C7.567 10.9995 7.70119 10.9858 7.83078 11.0112C7.96036 11.0366 8.07952 11.0999 8.17319 11.1931C8.26685 11.2863 8.33082 11.4052 8.35699 11.5348C8.38317 11.6645 8.37038 11.7989 8.32024 11.9213C8.2701 12.0436 8.18487 12.1483 8.07532 12.2222C7.96577 12.296 7.83682 12.3356 7.70478 12.336C7.52781 12.3363 7.35794 12.2663 7.2324 12.1414C7.10686 12.0165 7.03588 11.8468 7.03503 11.6695ZM7.97697 11.6695C7.97739 11.6148 7.96159 11.5611 7.93156 11.5153C7.90154 11.4696 7.85863 11.4338 7.80828 11.4124C7.75792 11.3911 7.70238 11.3851 7.64867 11.3954C7.59496 11.4057 7.54549 11.4317 7.50653 11.4701C7.46757 11.5085 7.44085 11.5576 7.42977 11.6113C7.41869 11.6649 7.42373 11.7206 7.44426 11.7714C7.4648 11.8221 7.49989 11.8657 7.54512 11.8964C7.59035 11.9272 7.64367 11.9439 7.69835 11.9443C7.77056 11.9432 7.83947 11.9138 7.89033 11.8625C7.9412 11.8111 7.96999 11.7419 7.97054 11.6695H7.97697Z" fill="#92C641"/>
</svg>
