
<svg width="39" height="34" viewBox="0 0 39 34" fill="none" xmlns="http://www.w3.org/2000/svg">
<g id="Icon">
<path id="Vector" d="M19.5 6.10255C21.1852 6.10255 22.5513 4.73645 22.5513 3.05127C22.5513 1.3661 21.1852 0 19.5 0C17.8148 0 16.4487 1.3661 16.4487 3.05127C16.4487 4.73645 17.8148 6.10255 19.5 6.10255Z" fill="black"/>
<path id="Vector_2" d="M35.1923 11.3335C36.8774 11.3335 38.2435 9.9674 38.2435 8.28223C38.2435 6.59706 36.8774 5.23096 35.1923 5.23096C33.5071 5.23096 32.141 6.59706 32.141 8.28223C32.141 9.9674 33.5071 11.3335 35.1923 11.3335Z" fill="black"/>
<path id="Vector_3" d="M3.80774 11.3335C5.49292 11.3335 6.85902 9.9674 6.85902 8.28223C6.85902 6.59706 5.49292 5.23096 3.80774 5.23096C2.12257 5.23096 0.75647 6.59706 0.75647 8.28223C0.75647 9.9674 2.12257 11.3335 3.80774 11.3335Z" fill="black"/>
<path id="Vector_4" fill-rule="evenodd" clip-rule="evenodd" d="M35.6021 10.2821C35.7137 9.7276 35.4556 9.16616 34.9657 8.88719C34.474 8.60996 33.8585 8.67796 33.44 9.05806C33.44 9.05806 31.6163 10.7162 29.5588 12.5871C28.5964 13.4624 27.2625 13.8024 25.9984 13.4972C24.7343 13.1921 23.7039 12.2802 23.247 11.0614L20.7241 4.33643C20.5323 3.82556 20.0458 3.4873 19.5001 3.4873C18.9543 3.4873 18.4679 3.82556 18.2761 4.33643L15.7531 11.0614C15.2963 12.2802 14.2658 13.1921 13.0017 13.4972C11.7376 13.8024 10.4038 13.4624 9.44134 12.5871C7.38391 10.7162 5.56012 9.05806 5.56012 9.05806C5.14166 8.67796 4.52617 8.60996 4.03448 8.88719C3.54454 9.16616 3.28649 9.7276 3.39807 10.2821C3.39807 10.2821 5.33868 19.9851 6.32381 24.9142C6.77191 27.1565 8.74042 28.7693 11.0263 28.7693H27.9739C30.2597 28.7693 32.2283 27.1565 32.6764 24.9142C33.6615 19.9851 35.6021 10.2821 35.6021 10.2821Z" fill="black"/>
<path id="Vector_5" fill-rule="evenodd" clip-rule="evenodd" d="M29.9615 31.3845H9.03852C8.31668 31.3845 7.73083 31.9704 7.73083 32.6922C7.73083 33.4141 8.31668 33.9999 9.03852 33.9999H29.9615C30.6834 33.9999 31.2692 33.4141 31.2692 32.6922C31.2692 31.9704 30.6834 31.3845 29.9615 31.3845Z" fill="black"/>
</g>
</svg>
