<svg width="46" height="47" viewBox="0 0 46 47" fill="none" xmlns="http://www.w3.org/2000/svg">
<g id="Group">
<path id="Vector" fill-rule="evenodd" clip-rule="evenodd" d="M44.2537 46.5014H1.7463C0.781804 46.5014 0 45.7195 0 44.755V2.24461C0 1.28005 0.781804 0.498638 1.7463 0.498638H44.2537C45.2182 0.498638 46 1.28005 46 2.24461V44.755C46 45.7195 45.2182 46.5014 44.2537 46.5014Z" fill="#FF6700"/>
<g id="Group_2">
<path id="Vector_2" d="M36.0703 14.9675H32.4514C32.2965 14.9675 32.171 15.0908 32.171 15.2427V31.7555C32.171 31.906 32.2965 32.0293 32.4514 32.0293H36.0703C36.224 32.0293 36.3512 31.906 36.3512 31.7554V15.2427C36.3512 15.0908 36.224 14.9675 36.0703 14.9675ZM23.7138 14.9675H9.92883C9.77386 14.9675 9.64929 15.0908 9.64929 15.2427V31.7555C9.64929 31.906 9.77386 32.0293 9.92883 32.0293H13.5486C13.7027 32.0293 13.8303 31.906 13.8303 31.7554V18.7954C13.8303 18.6457 13.9549 18.5216 14.1099 18.5216H21.9072C24.0999 18.5216 24.7223 20.201 24.7223 21.2845V31.7555C24.7223 31.906 24.8482 32.0293 25.0032 32.0293H28.6208C28.7748 32.0293 28.9012 31.906 28.9012 31.7554V20.0413C28.9012 19.0749 28.7849 17.6856 27.5383 16.4626C26.234 15.1859 25.0441 14.9675 23.7138 14.9675Z" fill="white"/>
<path id="Vector_3" d="M21.1782 21.5445H17.378C17.223 21.5445 17.0958 21.6678 17.0958 21.8188V31.7567C17.0958 31.9068 17.223 32.03 17.378 32.03H21.1782C21.3319 32.03 21.4578 31.9067 21.4578 31.7567V21.8188C21.4578 21.6678 21.3319 21.5445 21.1782 21.5445Z" fill="white"/>
</g>
</g>
</svg>
