<svg width="131" height="30" viewBox="0 0 131 30" fill="none" xmlns="http://www.w3.org/2000/svg">
<g id="Group 33">
<path id="Vector" d="M83.2265 18.7781C80.9463 18.7781 79.0908 16.9227 79.0908 14.6425C79.0908 12.3623 80.9463 10.5069 83.2265 10.5069C85.5067 10.5069 87.3621 12.3623 87.3621 14.6425C87.3621 16.945 85.4843 18.7781 83.2265 18.7781ZM83.2265 8.04785C79.5827 8.04785 76.6319 10.9987 76.6319 14.6425C76.6319 18.2863 79.5827 21.2371 83.2265 21.2371C86.8703 21.2371 89.8211 18.2863 89.8211 14.6425C89.8211 11.021 86.8703 8.04785 83.2265 8.04785ZM75.1564 19.1134H75.693V21.5948H75.1564C72.3174 21.5948 69.9925 19.2699 69.9925 16.4309V5.09709H72.4739V8.40559H75.6706V10.8869H72.4739V16.4533C72.4739 17.9063 73.681 19.1134 75.1564 19.1134ZM105.38 18.7781C103.1 18.7781 101.244 16.9227 101.244 14.6425C101.244 12.3623 103.1 10.5069 105.38 10.5069C107.66 10.5069 109.516 12.3623 109.516 14.6425C109.493 16.945 107.638 18.7781 105.38 18.7781ZM105.38 8.04785C101.736 8.04785 98.7853 10.9987 98.7853 14.6425C98.7853 18.2863 101.736 21.2371 105.38 21.2371C109.024 21.2371 111.975 18.2863 111.975 14.6425C111.975 11.021 109.024 8.04785 105.38 8.04785ZM124.359 18.7781C122.079 18.7781 120.223 16.9227 120.223 14.6425C120.223 12.3623 122.079 10.5069 124.359 10.5069C126.639 10.5069 128.495 12.3623 128.495 14.6425C128.495 16.945 126.617 18.7781 124.359 18.7781ZM124.359 8.04785C120.715 8.04785 117.764 10.9987 117.764 14.6425C117.764 18.2863 120.715 21.2371 124.359 21.2371C125.969 21.2371 127.444 20.6559 128.584 19.6947V20.9912H130.954V14.6425C130.954 11.021 128.003 8.04785 124.359 8.04785ZM96.6393 8.04785H97.8241V10.5292H96.6393C95.1639 10.5292 93.9567 11.7364 93.9567 13.2118V21.0806H91.4754V13.2118C91.4754 10.3727 93.8003 8.04785 96.6393 8.04785ZM113.629 4.76172H116.11V21.0359H113.629V4.76172ZM53.4947 13.5471V21.3936H51.0134V13.5471C51.0134 12.0717 49.8062 10.8645 48.3308 10.8645C46.8554 10.8645 45.6482 12.0717 45.6482 13.5471V21.3936H43.1669V13.5471C43.1669 12.0717 41.9597 10.8645 40.4843 10.8645C39.0089 10.8645 37.8017 12.0717 37.8017 13.5471V21.3936H35.3204V13.5471C35.3204 10.7081 37.6453 8.38317 40.4619 8.38317C42.0491 8.38317 43.4351 9.07614 44.3964 10.1939C45.3576 9.07614 46.7436 8.38317 48.3308 8.38317C51.1698 8.38317 53.4947 10.7081 53.4947 13.5471ZM61.7659 19.1134C59.4858 19.1134 57.6303 17.258 57.6303 14.9778C57.6303 12.6976 59.4858 10.8422 61.766 10.8422C64.0462 10.8422 65.9016 12.6976 65.9016 14.9778C65.9016 17.258 64.0237 19.1134 61.7659 19.1134ZM61.766 8.38317C58.0998 8.38317 55.149 11.334 55.149 14.9778C55.149 18.6216 58.0998 21.5724 61.7436 21.5724C65.3874 21.5724 68.3382 18.6216 68.3382 14.9778C68.3606 11.3563 65.4098 8.38317 61.766 8.38317Z" fill="black"/>
<path id="Vector_2" d="M15 0C6.70638 0 0 6.70638 0 15C0 23.2935 6.70638 30 15 30C23.2936 30 30 23.2936 30 15C30 6.75113 23.383 0 15 0Z" fill="black"/>
<path id="Vector_3" d="M19.4709 3.68848L15.0224 18.4426L15 18.465L14.9553 18.4426L10.5067 3.68848L4.76147 22.5782H5.83451C5.83451 22.5782 6.54985 19.2921 7.73465 17.3249C8.38298 16.2518 9.36658 15.38 10.6855 15.4023C11.6244 15.4247 12.4292 15.9389 13.4351 17.3472C13.6587 17.6601 13.9269 18.1743 14.1952 18.6661C14.6199 19.4933 14.9776 20.3427 14.9776 20.3427C14.9776 20.3427 15.9165 18.1967 16.52 17.3472C17.526 15.9389 18.3308 15.4247 19.2697 15.4023C20.5886 15.38 21.5946 16.2518 22.2206 17.3249C23.4053 19.2921 24.1206 22.5782 24.1206 22.5782H25.1937L19.4709 3.68848Z" fill="white"/>
</g>
</svg>
