<svg width="131" height="22" viewBox="0 0 131 22" fill="none" xmlns="http://www.w3.org/2000/svg">
<path id="Vector" d="M7.17431 21.7292H0.953735V0.355681H11.7122L24.0548 16.3124V0.355681H30.2754V21.7292H19.7349L7.17431 5.5V21.7292ZM60.0378 15.1197C60.0378 18.0908 59.5178 19.1154 58.6571 20.0976C57.3377 21.5595 55.4176 22 51.7179 22H41.0968C37.397 22 35.4737 21.5595 34.1559 20.0976C33.2952 19.1154 32.7752 18.0908 32.7752 15.1197V6.8803C32.7752 3.91086 33.2952 2.88787 34.1559 1.90403C35.4753 0.440522 37.397 0 41.0968 0H51.7179C55.4176 0 57.3377 0.440522 58.6571 1.90403C59.5178 2.88787 60.0378 3.91086 60.0378 6.8803V15.1197ZM51.4563 16.5848C52.8774 16.5848 53.378 16.5 53.7188 16.1867C54.0369 15.8947 54.1774 15.5178 54.1774 14.2615V7.7385C54.1774 6.4822 54.0369 6.10857 53.7188 5.81489C53.378 5.5 52.8774 5.41679 51.4563 5.41679H41.3568C39.9356 5.41679 39.435 5.5 39.0959 5.81489C38.7762 6.10857 38.6357 6.4822 38.6357 7.7385V14.2615C38.6357 15.5178 38.7762 15.8947 39.0959 16.1867C39.435 16.5 39.9356 16.5848 41.3568 16.5848H51.4563ZM69.078 0.355681V21.7292H62.5781V0.355681H69.078ZM80.0593 0.355681H88.6408L77.0588 10.3523L90.1217 21.7292H80.9394L69.078 10.5823L80.0593 0.355681ZM91.3199 0.355681H97.8215V21.7292H91.3199M122.605 21.7292L120.682 18.0059H108.104L106.203 21.7275H99.0214L110.544 0.355681H118.625L130.145 21.7292H122.605ZM110.363 13.3641H118.445L114.403 5.62563L110.363 13.3641Z" fill="#1C4598"/>
</svg>
