<svg width="157" height="37" viewBox="0 0 157 37" fill="none" xmlns="http://www.w3.org/2000/svg">
<path id="Vector" d="M40.5859 21.3504C40.5859 16.0192 43.9015 12.0588 49.1197 12.0588C54.3404 12.0588 57.63 16.0192 57.63 21.3504C57.63 26.6816 54.3404 30.6184 49.1197 30.6184C43.9015 30.6184 40.5859 26.6816 40.5859 21.3504ZM53.9708 21.3504C53.9708 17.7884 52.3885 15.0232 49.1457 15.0232C45.9055 15.0232 44.2477 17.7884 44.2477 21.3504C44.2477 24.8888 45.9055 27.654 49.1457 27.654C52.3859 27.654 53.9708 24.8888 53.9708 21.3504ZM60.6984 30.22H64.2353V21.028C64.2353 19.783 64.1364 17.9142 64.1364 17.9142H64.1859C64.1859 17.9142 64.8782 19.4344 65.4481 20.3806L71.4834 30.22H74.9474V12.4074H71.4106V21.7488C71.4106 22.9938 71.5095 24.839 71.5095 24.839H71.46C71.46 24.839 70.7912 23.3188 70.2238 22.349L64.3368 12.4074H60.701V30.22H60.6984ZM79.0283 30.22H92.1139V27.2058H82.6146V22.3962H90.8777V19.4318H82.6146V15.4452H92.0384V12.4048H79.0257V30.22H79.0283ZM95.5753 12.4074H103.344C105.397 12.4074 106.93 13.005 107.969 14.077C108.958 15.0992 109.551 16.4936 109.551 18.137C109.551 21.4998 107.349 23.767 103.638 23.767H99.284V30.22H95.5727V12.4074H95.5753ZM99.2866 20.8262H102.998C104.879 20.8262 105.868 19.7804 105.868 18.1606C105.868 16.491 104.83 15.5448 103.05 15.5448H99.2892V20.8262H99.2866ZM112.2 30.22H124.099V27.2058H115.787V12.4074H112.2V30.22ZM126.002 24.4904C126.002 28.3512 128.401 30.5188 132.979 30.5188C137.505 30.5188 139.832 28.3014 139.832 24.4904V12.4074H136.246V24.4406C136.246 26.2832 135.181 27.6304 132.906 27.6304C130.507 27.6304 129.591 26.3356 129.591 24.4904V12.4074H126.004V24.4904H126.002ZM142.354 24.7132C142.476 28.4744 145.198 30.6184 149.997 30.6184C153.979 30.6184 156.873 28.6002 156.873 24.9884C156.873 21.1512 153.906 20.2784 150.268 19.4816C147.645 18.9076 146.409 18.4856 146.409 17.0388C146.409 15.7676 147.671 14.9472 149.599 14.9472C151.429 14.9472 152.816 15.8436 153.014 17.639H156.452C156.179 14.0508 153.607 12.0824 149.623 12.0824C145.69 12.0824 142.846 13.9014 142.846 17.4136C142.846 21.125 145.74 21.9716 148.907 22.695C151.603 23.3188 153.284 23.6674 153.284 25.4104C153.284 27.0538 151.676 27.7038 149.846 27.7038C147.325 27.7038 146.112 26.8572 145.865 24.7132H142.354ZM0.873413 6.12475V36.5H31.0345V19.1566H27.6824V33.1241H4.22551V9.50066H18.0972V6.12475H0.873413ZM27.6824 0.5V6.12475H22.0973V9.50066H27.6824V15.1254H31.0345V9.50066H36.6196V6.12475H31.0345V0.5H27.6824ZM18.0945 28.6264V13.8123H15.1172C15.1172 14.8319 14.7763 15.5998 14.2584 16.0559C13.7196 16.5119 12.8998 16.719 11.9525 16.719H11.5803V19.1566H14.7451V28.6264H18.0945Z" fill="#F50514"/>
</svg>
