<svg width="89" height="21" viewBox="0 0 89 21" fill="none" xmlns="http://www.w3.org/2000/svg">
<path id="Vector" d="M22.9981 10.8676V0.735493H26.158V1.40516C26.158 1.77355 26.1636 2.07492 26.1705 2.07492C26.1774 2.07492 26.3768 1.95351 26.6137 1.80514C29.4083 0.0547706 33.4709 -0.472355 37.1145 0.442711C40.3972 1.26716 42.777 3.22414 43.6229 5.7951C44.1173 7.29751 44.09 8.96822 43.5474 10.4212C42.8725 12.2286 41.485 13.6817 39.4837 14.6773C37.7324 15.5484 35.7327 15.9846 33.4909 15.9846C31.6324 15.9846 29.8991 15.6747 28.3733 15.0696C27.7679 14.8296 26.9918 14.4355 26.5211 14.129L26.158 13.8927V21H22.9981V10.8676ZM35.0193 13.2909C36.7968 13.0388 38.1758 12.4749 39.2097 11.5774C39.9924 10.8981 40.5374 9.95456 40.7439 8.92163C40.8284 8.49914 40.8286 7.50155 40.7444 7.08034C40.5013 5.8647 39.8046 4.80285 38.7619 4.05826C38.3416 3.75817 37.4879 3.33045 36.9429 3.14714C35.4039 2.62949 33.538 2.47619 31.829 2.72702C28.8618 3.16244 26.8563 4.63415 26.3182 6.77068C26.0808 7.71339 26.1233 8.73111 26.437 9.62051C27.1495 11.6409 29.2508 12.9853 32.2202 13.3209C32.8172 13.3884 34.4563 13.3708 35.0194 13.2909H35.0193ZM45.4951 10.8676V0.735493H48.6549V1.40516C48.6549 1.77355 48.6618 2.07492 48.6701 2.07492C48.6785 2.07492 48.8523 1.96604 49.0565 1.83308C49.5289 1.52509 50.4613 1.0645 51.0592 0.843879C53.64 -0.108697 56.7912 -0.262393 59.5488 0.429977C64.0442 1.55856 66.6914 4.65053 66.4414 8.48058C66.2506 11.4042 64.3053 13.8056 61.1055 15.0677C60.0617 15.4793 58.9921 15.7389 57.6534 15.9054C56.9468 15.9933 55.0425 15.9933 54.3049 15.9052C52.2173 15.6562 50.3845 15.0363 48.9554 14.0958L48.6549 13.8981V21H45.4951V10.8676ZM57.5928 13.276C60.0544 12.9084 61.7891 11.9168 62.7006 10.3561C63.2301 9.44954 63.4283 8.24357 63.232 7.12387C62.8238 4.79663 60.7785 3.18623 57.647 2.72653C55.5802 2.42318 53.2466 2.72534 51.6603 3.50171C50.0409 4.29428 49.0663 5.47755 48.7337 7.05517C48.6464 7.46937 48.6466 8.53408 48.7342 8.93999C48.9698 10.0327 49.5024 10.9368 50.3106 11.6163C51.4235 12.5519 52.872 13.109 54.7515 13.3244C55.3732 13.3956 56.9746 13.3683 57.5928 13.276ZM9.94635 15.9637C8.27021 15.8156 6.83957 15.4854 5.62304 14.9658C2.85593 13.7839 1.10822 11.7891 0.633908 9.27137C0.54329 8.79054 0.50874 7.70717 0.567474 7.18952C0.910007 4.17099 3.13361 1.78007 6.64916 0.650304C8.51996 0.049144 10.8227 -0.147294 12.8898 0.118045C16.6767 0.604304 19.5412 2.3603 20.8003 4.9674C21.8255 7.09011 21.6954 9.66859 20.4631 11.6509C19.9079 12.5439 18.9941 13.4655 18.0522 14.0818C16.5869 15.0407 14.8369 15.6372 12.7113 15.9023C12.2855 15.9554 10.3413 15.9985 9.94635 15.9637ZM12.1879 13.3241C13.8362 13.1492 15.2228 12.6785 16.2661 11.9402C17.119 11.3364 17.794 10.4466 18.0969 9.52674C18.2741 8.98836 18.3093 8.73555 18.3093 7.99975C18.3093 7.26612 18.2746 7.01539 18.0987 6.47662C17.5206 4.70561 15.8296 3.3882 13.4669 2.86818C11.3954 2.41213 8.97946 2.57066 7.18961 3.27991C5.89825 3.79163 4.87904 4.62003 4.28124 5.64348C3.64573 6.73179 3.50141 8.21406 3.90692 9.4915C4.34382 10.8679 5.49471 12.0198 7.07846 12.6659C7.94111 13.0178 9.00918 13.2631 10.0666 13.3519C10.4723 13.386 11.7641 13.369 12.1879 13.3241ZM77.3687 15.9649C77.3026 15.9574 77.0707 15.9343 76.8534 15.9137C75.1092 15.7484 73.2755 15.1976 71.9311 14.4351C70.1137 13.4044 68.8479 11.9393 68.2699 10.1979C67.8789 9.01945 67.8122 7.69503 68.0823 6.47652C68.491 4.63405 69.6125 3.06955 71.3542 1.91244C73.651 0.386544 77.0282 -0.291217 80.2881 0.119625C82.9966 0.460874 85.2281 1.45145 86.7808 3.00183C87.9633 4.18254 88.6431 5.56609 88.8396 7.19169C88.8907 7.61418 88.8828 8.46854 88.8235 8.91679C88.3975 12.1448 85.8385 14.612 81.9196 15.5732C80.7315 15.8646 79.9856 15.9528 78.588 15.9672C77.9835 15.9735 77.4349 15.9724 77.3687 15.9649ZM79.4466 13.3401C81.5331 13.1482 83.2336 12.4606 84.3253 11.3675C85.0645 10.6275 85.4935 9.81281 85.6626 8.82815C85.7322 8.42244 85.7313 7.57657 85.6606 7.15576C85.2802 4.89011 83.2826 3.24773 80.3225 2.76729C79.6118 2.6519 79.1391 2.61429 78.3991 2.61429C75.0804 2.61429 72.5053 3.86567 71.515 5.95966C71.2198 6.58382 71.0836 7.22792 71.0836 7.99975C71.0836 9.01817 71.3209 9.82593 71.8567 10.6307C72.8404 12.1083 74.7057 13.0522 77.1748 13.3218C77.684 13.3774 78.9323 13.3875 79.4467 13.3402L79.4466 13.3401Z" fill="#006B33"/>
</svg>
