<svg width="101" height="31" viewBox="0 0 101 31" fill="none" xmlns="http://www.w3.org/2000/svg">
<g id="Group 32">
<path id="path28" d="M0.873413 0.5H100.873V30.5H0.873413V0.5Z" fill="#FFC915"/>
<path id="path30" d="M42.2467 9.34305C43.8134 9.34305 45.3246 9.87303 46.4691 10.8109V9.55671H48.6163V23.2058H46.4691V21.9571C45.344 22.8895 43.8328 23.4167 42.2467 23.4167C40.3022 23.4167 38.5327 22.698 37.266 21.3939C36.0104 20.1064 35.3214 18.3305 35.3214 16.391C35.3214 14.4486 36.0131 12.6672 37.266 11.3742C38.5354 10.0645 40.3049 9.34305 42.2467 9.34305ZM27.3823 9.29311C29.1407 9.29311 30.7352 9.93408 31.8769 11.1023C33.0908 12.3453 33.7381 14.0907 33.7519 16.1551V16.8571H22.6932C22.8266 19.421 24.785 21.3245 27.3323 21.3245C29.1601 21.3245 30.4685 20.5448 31.4519 18.8716L31.5714 18.669L33.4325 19.865L33.3242 20.0509C32.063 22.218 29.9907 23.3639 27.3295 23.3639C23.3155 23.3639 20.5126 20.4754 20.5126 16.341C20.5126 12.2566 23.4016 9.29311 27.3823 9.29311ZM84.5037 9.29311C86.2621 9.29311 87.8566 9.93408 88.9983 11.1023C90.2123 12.3453 90.8595 14.0907 90.8734 16.1551V16.8571H79.8147C79.948 19.421 81.9064 21.3245 84.4537 21.3245C86.2816 21.3245 87.5899 20.5448 88.5733 18.8716L88.6928 18.669L90.554 19.865L90.4456 20.0509C89.1844 22.218 87.1122 23.3639 84.451 23.3639C80.4369 23.3639 77.634 20.4754 77.6313 16.341C77.6313 12.2566 80.523 9.29311 84.5037 9.29311ZM19.6848 9.52896V11.5684H13.4623V23.203H11.29V9.52896H19.6848ZM70.7366 9.34305C73.8478 9.34305 75.7812 11.4769 75.7812 14.912V23.178H73.6089V14.912C73.6089 12.7671 72.3783 11.3825 70.4727 11.3825C68.0226 11.3825 67.1503 13.0696 67.1503 14.6484V23.1808H64.978V14.9148C64.978 12.7366 63.7863 11.3853 61.8668 11.3853C60.2862 11.3853 58.5972 12.6117 58.5972 14.4375V23.1725H56.425V9.52619H58.5972V10.8498C59.4945 9.87303 60.7723 9.34305 62.264 9.34305C64.4725 9.34305 65.6808 10.4585 66.3309 11.5157C67.3198 10.1311 68.9032 9.34305 70.7366 9.34305ZM53.6054 5.5V23.178H51.4331V5.5H53.6054ZM42.1383 11.5157C39.491 11.5157 37.4937 13.6134 37.4937 16.3937C37.4937 19.1602 39.491 21.244 42.1383 21.2468C44.8857 21.2468 46.7302 19.2961 46.7302 16.3937C46.7302 13.4775 44.8857 11.5157 42.1383 11.5157ZM27.3323 11.3298C25.1433 11.3298 23.3155 12.7838 22.7932 14.8981H31.5435C31.1602 12.7532 29.499 11.3298 27.3323 11.3298ZM84.4509 11.3298C82.262 11.3298 80.4341 12.7838 79.9119 14.8981H88.6622C88.2789 12.7532 86.6177 11.3298 84.4509 11.3298Z" fill="#111111"/>
</g>
</svg>
