<svg width="138" height="23" viewBox="0 0 138 23" fill="none" xmlns="http://www.w3.org/2000/svg">
<g id="Group">
<path id="a" d="M9.12923 15.73C9.31846 16.2054 9.25846 16.8146 9.16616 17.1838C9.00462 17.8392 8.56154 18.5085 7.25077 18.5085C6.02308 18.5085 5.27539 17.7977 5.27539 16.7269V14.8208H0V16.3346C0 20.7192 3.44769 22.0438 7.14462 22.0438C10.6985 22.0438 13.6246 20.8346 14.0908 17.5531C14.3308 15.8546 14.1554 14.7423 14.0723 14.3315C13.2415 10.2146 5.78308 8.98692 5.22462 6.68384C5.14707 6.34421 5.14078 5.99218 5.20615 5.65C5.34462 5.01769 5.77385 4.33 7.00154 4.33C8.15539 4.33 8.82462 5.04077 8.82462 6.11153V7.33H13.7308V5.94538C13.7308 1.6623 9.88616 0.993073 7.10769 0.993073C3.60923 0.993073 0.752308 2.15153 0.230769 5.35923C0.0923077 6.23615 0.0692308 7.02077 0.276923 8.00846C1.13077 12.0238 8.11385 13.1869 9.12923 15.73Z" fill="#034EA2"/>
<path id="Vector" d="M21.0462 1.62077L17.4 21.2777H22.7123L25.4031 3.43923H25.5139L28.1308 21.2777H33.4154L29.7923 1.61615L21.0462 1.62077ZM50.7462 1.62077L48.3231 16.6485H48.2077L45.7893 1.62077H37.7723L37.3385 21.2777H42.2585L42.3785 3.60538H42.4893L45.7708 21.2777H50.76L54.0462 3.61H54.1523L54.2769 21.2777H59.1923L58.7585 1.61615L50.7462 1.62077Z" fill="#034EA2"/>
<path id="a_2" d="M73.0385 15.6931C73.2277 16.1685 73.1677 16.7777 73.0754 17.1469C72.9139 17.8023 72.4708 18.4715 71.16 18.4715C69.9323 18.4715 69.1846 17.7608 69.1846 16.69V14.7838H63.9092V16.2977C63.9092 20.6823 67.3569 22.0069 71.0539 22.0069C74.6077 22.0069 77.5339 20.7977 78 17.5161C78.24 15.8177 78.0646 14.7054 77.9816 14.2946C77.1508 10.1777 69.6923 8.94999 69.1339 6.64692C69.0563 6.30728 69.05 5.95526 69.1154 5.61307C69.2539 4.98076 69.6831 4.29307 70.9108 4.29307C72.0646 4.29307 72.7339 5.00384 72.7339 6.07461V7.29307H77.64V5.90845C77.64 1.62538 73.7954 0.956146 71.0169 0.956146C67.5185 0.956146 64.6615 2.11461 64.14 5.3223C64.0015 6.19922 63.9785 6.98384 64.1862 7.97153C65.04 11.9869 72.0231 13.15 73.0385 15.6931Z" fill="#034EA2"/>
<path id="Vector_2" d="M89.5385 18.3331C90.9046 18.3331 91.3246 17.3915 91.4216 16.9115C91.4631 16.6992 91.4677 16.4131 91.4677 16.1592V1.62077H96.4431V15.7115C96.444 16.1427 96.4286 16.5738 96.3969 17.0039C96.0508 20.6731 93.1523 21.8639 89.5385 21.8639C85.92 21.8639 83.0216 20.6731 82.6754 17.0039C82.6616 16.81 82.6246 16.0715 82.6292 15.7115V1.61616H87.6046V16.1546C87.6 16.4131 87.6092 16.6992 87.6508 16.9115C87.7431 17.3915 88.1677 18.3331 89.5385 18.3331ZM113.575 1.62077L113.843 17.05H113.737L109.214 1.62077H101.922V21.07H106.754L106.486 5.10539H106.592L111.443 21.07H118.445V1.62077H113.575ZM130.537 18.13C131.958 18.13 132.457 17.23 132.545 16.6992C132.586 16.4823 132.591 16.2054 132.591 15.9608V13.0992H130.574V10.2377H137.538V15.5085C137.538 15.8777 137.529 16.1454 137.469 16.8008C137.146 20.3823 134.04 21.6608 130.555 21.6608C127.071 21.6608 123.969 20.3823 123.642 16.8008C123.586 16.1454 123.572 15.8777 123.572 15.5085V7.2377C123.572 6.88693 123.618 6.26847 123.655 5.94539C124.094 2.26693 127.071 1.08539 130.555 1.08539C134.04 1.08539 137.095 2.2577 137.455 5.94077C137.52 6.56847 137.502 7.23308 137.502 7.23308V7.89308H132.545V6.79001C132.545 6.79001 132.545 6.32847 132.485 6.04231C132.392 5.60847 132.023 4.61154 130.518 4.61154C129.088 4.61154 128.668 5.5577 128.562 6.04231C128.502 6.30077 128.478 6.65154 128.478 6.97V15.9562C128.478 16.2054 128.488 16.4823 128.525 16.7039C128.617 17.23 129.115 18.13 130.537 18.13Z" fill="#034EA2"/>
</g>
</svg>
