<svg width="93" height="25" viewBox="0 0 93 25" fill="none" xmlns="http://www.w3.org/2000/svg">
<path id="Vector" d="M83.3733 20.5H75.4617C71.0145 20.5 70.619 16.8468 70.619 15.7308C70.619 14.6148 71.0145 10.9615 75.4617 10.9615H83.3733C87.8208 10.9615 88.2163 14.6148 88.2163 15.7308C88.2163 16.8468 87.8208 20.5 83.3733 20.5ZM83.5453 6.96153H75.5987C67.3404 6.96153 66.6056 13.6784 66.6056 15.7308C66.6056 17.7831 67.3404 24.5 75.5987 24.5H83.5453C91.804 24.5 92.5385 17.7831 92.5385 15.7308C92.5385 13.6784 91.804 6.96153 83.5453 6.96153ZM65.0172 7.57691H62.4409C61.3375 7.57691 61.1103 7.76183 60.6849 8.38276C60.2588 9.00338 52.8902 20.0634 52.8902 20.0634C52.655 20.4034 52.4055 20.5409 52.0955 20.5409C51.7853 20.5409 51.5361 20.4034 51.3012 20.0634C51.3012 20.0634 43.9319 9.00336 43.5062 8.38276C43.0808 7.76152 42.8536 7.57691 41.7502 7.57691H39.1739C38.5811 7.57691 38.3094 8.0326 38.6824 8.58922L47.4835 21.7271C48.849 23.7019 49.8511 24.5 52.0955 24.5C54.34 24.5 55.3421 23.7019 56.7079 21.7271L65.5087 8.58922C65.8816 8.03258 65.6106 7.57691 65.0172 7.57691ZM31.1023 8.64983C31.1023 7.88122 31.4033 7.57691 32.163 7.57691H34.0552C34.8147 7.57691 35.1157 7.88152 35.1157 8.64983V23.4268C35.1157 24.1954 34.8147 24.5 34.0552 24.5H32.163C31.4036 24.5 31.1023 24.1954 31.1023 23.4268L31.1023 8.64983ZM30.9442 3.96767C30.3317 3.35752 30.3317 2.87351 30.9442 2.26306L32.2535 0.958125C32.866 0.347343 33.3516 0.347343 33.9641 0.95782L35.2741 2.26275C35.8863 2.87353 35.8863 3.35752 35.2741 3.96797L33.9641 5.2729C33.3516 5.88336 32.866 5.88336 32.2538 5.2729L30.9442 3.96797V3.96767ZM27.0302 7.57691H24.4567C23.3545 7.57691 23.1273 7.76213 22.7025 8.38276C22.2771 9.00338 14.9158 20.0631 14.9158 20.0631C14.6812 20.4031 14.4321 20.5406 14.1224 20.5406C13.8121 20.5406 13.5633 20.4031 13.3284 20.0631C13.3284 20.0631 5.96713 9.00306 5.54233 8.38245C5.11754 7.76213 4.8903 7.57691 3.78817 7.57691H1.21464C0.553363 7.57691 0.351125 8.0326 0.723761 8.58922C1.09579 9.14612 9.51503 21.7268 9.51503 21.7268C10.8793 23.7019 11.8808 24.5 14.1224 24.5C16.3638 24.5 17.3656 23.7019 18.7295 21.7268L27.5211 8.58922C27.8934 8.03258 27.6915 7.57691 27.0302 7.57691" fill="#415FFF"/>
</svg>
